<?xml version="1.0"?>
<!DOCTYPE svg PUBLIC "-//W3C//DTD SVG 1.1//EN" "http://www.w3.org/Graphics/SVG/1.1/DTD/svg11.dtd">
<svg width="155.04000000000002mm" height="12.84mm" viewBox="0 0 155.04000000000002 12.84" xmlns="http://www.w3.org/2000/svg" version="1.1">
<g id="Sketch" transform="translate(153.520000,11.320000) scale(1,-1)">
<path id="Sketch_w0000"  d="M -152.0 9.8 L -137.75 9.8 A 1.75 1.75 0 0 1 -134.25 9.8L -97.75000000000001 9.8 A 1.75 1.75 0 0 1 -94.25 9.8L -57.75000000000001 9.8 A 1.75 1.75 0 0 1 -54.25 9.8L -17.750000000000007 9.8 A 1.75 1.75 0 0 1 -14.25 9.8L 0.0 9.8 L 0.0 0.0 L -14.250000000000007 0.0 A 1.75 1.75 0 0 1 -17.75 2.14313e-16L -54.25000000000001 0.0 A 1.75 1.75 0 0 1 -57.75 2.14313e-16L -94.25000000000001 0.0 A 1.75 1.75 0 0 1 -97.75 2.14313e-16L -134.25 0.0 A 1.75 1.75 0 0 1 -137.75 2.14313e-16L -152.0 0.0 L -152.0 9.8 " stroke="#000000" stroke-width="0.35 px" style="stroke-width:0.35;stroke-miterlimit:4;stroke-dasharray:none;stroke-linecap:square;fill:none;fill-opacity:1;fill-rule: evenodd"/>
<title>b'Sketch'</title>
</g>
</svg>